<?xml version="1.0" encoding="UTF-8" standalone="no"?>
<svg
   xmlns:dc="http://purl.org/dc/elements/1.1/"
   xmlns:cc="http://creativecommons.org/ns#"
   xmlns:rdf="http://www.w3.org/1999/02/22-rdf-syntax-ns#"
   xmlns:svg="http://www.w3.org/2000/svg"
   xmlns="http://www.w3.org/2000/svg"
   xmlns:sodipodi="http://sodipodi.sourceforge.net/DTD/sodipodi-0.dtd"
   xmlns:inkscape="http://www.inkscape.org/namespaces/inkscape"
   viewBox="0 -256 16 16.000001"
   id="svg3013"
   version="1.1"
   inkscape:version="0.92.3 (2405546, 2018-03-11)"
   width="16"
   height="16"
   sodipodi:docname="icon_speed_down.svg">
  <metadata
     id="metadata3023">
    <rdf:RDF>
      <cc:Work
         rdf:about="">
        <dc:format>image/svg+xml</dc:format>
        <dc:type
           rdf:resource="http://purl.org/dc/dcmitype/StillImage" />
        <dc:title></dc:title>
      </cc:Work>
    </rdf:RDF>
  </metadata>
  <defs
     id="defs3021" />
  <sodipodi:namedview
     pagecolor="#ffffff"
     bordercolor="#666666"
     borderopacity="1"
     objecttolerance="10"
     gridtolerance="10"
     guidetolerance="10"
     inkscape:pageopacity="0"
     inkscape:pageshadow="2"
     inkscape:window-width="3840"
     inkscape:window-height="2066"
     id="namedview3019"
     showgrid="false"
     inkscape:zoom="11.9198"
     inkscape:cx="38.915919"
     inkscape:cy="17.849191"
     inkscape:window-x="-11"
     inkscape:window-y="-11"
     inkscape:window-maximized="1"
     inkscape:current-layer="svg3013"
     units="px" />
  <g
     id="g4527"
     inkscape:export-filename="C:\Users\cuencapauta\Documents\Erick\p2kk\Dropbox\Workspaces\htdocs\globmig\evoflows\img\speed_down.png"
     inkscape:export-xdpi="3.01"
     inkscape:export-ydpi="3.01"
     transform="matrix(0.01001913,0,0,0.01001913,-25.929254,-254.33757)">
    <rect
       style="opacity:1;fill:none;fill-opacity:1;stroke:none;stroke-width:4.40774727;stroke-linecap:round;stroke-linejoin:round;stroke-miterlimit:4;stroke-dasharray:none;stroke-dashoffset:0;stroke-opacity:1;paint-order:normal"
       id="rect4523"
       width="1596.9447"
       height="1596.9447"
       x="2587.9746"
       y="-165.9257"
       ry="8.8366318" />
    <path
       sodipodi:nodetypes="ssssaassssssaasss"
       style="fill:currentColor"
       inkscape:connector-curvature="0"
       id="path3712"
       d="m 4093.5956,525.99546 v 192 c 0,26.66667 -9.3333,49.33333 -28,68 -18.6667,18.66667 -41.3333,28 -68,28 h -416 -384.0001 -416 c -26.6667,0 -49.3333,-9.33333 -68,-28 -18.6667,-18.66667 -28,-41.33333 -28,-68 v -192 c 0,-26.66667 9.3333,-49.33333 28,-68 18.6667,-18.66667 41.3333,-28 68,-28 0,0 277.3333,0 416,0 128,0 256.0001,0 384.0001,0 138.6667,0 416,0 416,0 26.6667,0 49.3333,9.33333 68,28 18.6667,18.66667 28,41.33333 28,68 z" />
  </g>
</svg>
