<?xml version="1.0" encoding="UTF-8" standalone="no"?>
<svg
   xmlns:dc="http://purl.org/dc/elements/1.1/"
   xmlns:cc="http://creativecommons.org/ns#"
   xmlns:rdf="http://www.w3.org/1999/02/22-rdf-syntax-ns#"
   xmlns:svg="http://www.w3.org/2000/svg"
   xmlns="http://www.w3.org/2000/svg"
   xmlns:sodipodi="http://sodipodi.sourceforge.net/DTD/sodipodi-0.dtd"
   xmlns:inkscape="http://www.inkscape.org/namespaces/inkscape"
   viewBox="0 -256 16 16.000001"
   id="svg3013"
   version="1.1"
   inkscape:version="0.92.3 (2405546, 2018-03-11)"
   width="16"
   height="16"
   sodipodi:docname="icon_speed_up.svg">
  <metadata
     id="metadata3023">
    <rdf:RDF>
      <cc:Work
         rdf:about="">
        <dc:format>image/svg+xml</dc:format>
        <dc:type
           rdf:resource="http://purl.org/dc/dcmitype/StillImage" />
        <dc:title></dc:title>
      </cc:Work>
    </rdf:RDF>
  </metadata>
  <defs
     id="defs3021" />
  <sodipodi:namedview
     pagecolor="#ffffff"
     bordercolor="#666666"
     borderopacity="1"
     objecttolerance="10"
     gridtolerance="10"
     guidetolerance="10"
     inkscape:pageopacity="0"
     inkscape:pageshadow="2"
     inkscape:window-width="3840"
     inkscape:window-height="2066"
     id="namedview3019"
     showgrid="false"
     inkscape:zoom="23.839601"
     inkscape:cx="-22.838648"
     inkscape:cy="-0.50291039"
     inkscape:window-x="-11"
     inkscape:window-y="-11"
     inkscape:window-maximized="1"
     inkscape:current-layer="svg3013"
     units="px" />
  <g
     id="g4531"
     inkscape:export-filename="C:\Users\cuencapauta\Documents\Erick\p2kk\Dropbox\Workspaces\htdocs\globmig\evoflows\img\speed_up.png"
     inkscape:export-xdpi="3.01"
     inkscape:export-ydpi="3.01"
     transform="matrix(0.01001913,0,0,0.01001913,-1.321867,-254.33757)">
    <rect
       ry="8.8366318"
       y="-165.92523"
       x="131.93431"
       height="1596.9447"
       width="1596.9447"
       id="rect3714"
       style="opacity:1;fill:none;fill-opacity:1;stroke:none;stroke-width:4.40774727;stroke-linecap:round;stroke-linejoin:round;stroke-miterlimit:4;stroke-dasharray:none;stroke-dashoffset:0;stroke-opacity:1;paint-order:normal" />
    <path
       d="m 1634.4939,520.62624 v 192 q 0,40 -28,68 -28,28 -68,28 h -416 v 415.99996 q 0,40 -28,68 -28,28 -68.0001,28 H 834.49382 q -40,0 -68,-28 -28,-28 -28,-68 V 808.62624 h -416 q -40,0 -68,-28 -28,-28 -28,-68 v -192 q 0,-40 28,-68 28,-28 68,-28 h 416 V 8.6262416 q 0,-39.9999996 28,-67.9999996 28,-28 68,-28 h 191.99998 q 40.0001,0 68.0001,28 28,28 28,67.9999996 V 424.62624 h 416 q 40,0 68,28 28,28 28,68 z"
       id="path3017"
       inkscape:connector-curvature="0"
       style="fill:currentColor" />
  </g>
</svg>
