<?xml version="1.0" encoding="UTF-8" standalone="no"?>
<!-- Generator: Adobe Illustrator 19.0.0, SVG Export Plug-In . SVG Version: 6.00 Build 0)  -->

<svg
   xmlns:dc="http://purl.org/dc/elements/1.1/"
   xmlns:cc="http://creativecommons.org/ns#"
   xmlns:rdf="http://www.w3.org/1999/02/22-rdf-syntax-ns#"
   xmlns:svg="http://www.w3.org/2000/svg"
   xmlns="http://www.w3.org/2000/svg"
   xmlns:sodipodi="http://sodipodi.sourceforge.net/DTD/sodipodi-0.dtd"
   xmlns:inkscape="http://www.inkscape.org/namespaces/inkscape"
   version="1.1"
   id="Capa_1"
   x="0px"
   y="0px"
   viewBox="0 0 16 16"
   xml:space="preserve"
   sodipodi:docname="icon_pin.svg"
   inkscape:version="0.92.3 (2405546, 2018-03-11)"
   width="16"
   height="16"><metadata
   id="metadata39"><rdf:RDF><cc:Work
       rdf:about=""><dc:format>image/svg+xml</dc:format><dc:type
         rdf:resource="http://purl.org/dc/dcmitype/StillImage" /><dc:title></dc:title></cc:Work></rdf:RDF></metadata><defs
   id="defs37" /><sodipodi:namedview
   pagecolor="#ffffff"
   bordercolor="#666666"
   borderopacity="1"
   objecttolerance="10"
   gridtolerance="10"
   guidetolerance="10"
   inkscape:pageopacity="0"
   inkscape:pageshadow="2"
   inkscape:window-width="3840"
   inkscape:window-height="2066"
   id="namedview35"
   showgrid="false"
   inkscape:zoom="8.9038121"
   inkscape:cx="-59.409295"
   inkscape:cy="-6.5132075"
   inkscape:window-x="-11"
   inkscape:window-y="-11"
   inkscape:window-maximized="1"
   inkscape:current-layer="Capa_1" />

<g
   id="g4"
   transform="translate(0,-37.011002)">
</g>
<g
   id="g6"
   transform="translate(0,-37.011002)">
</g>
<g
   id="g8"
   transform="translate(0,-37.011002)">
</g>
<g
   id="g10"
   transform="translate(0,-37.011002)">
</g>
<g
   id="g12"
   transform="translate(0,-37.011002)">
</g>
<g
   id="g14"
   transform="translate(0,-37.011002)">
</g>
<g
   id="g16"
   transform="translate(0,-37.011002)">
</g>
<g
   id="g18"
   transform="translate(0,-37.011002)">
</g>
<g
   id="g20"
   transform="translate(0,-37.011002)">
</g>
<g
   id="g22"
   transform="translate(0,-37.011002)">
</g>
<g
   id="g24"
   transform="translate(0,-37.011002)">
</g>
<g
   id="g26"
   transform="translate(0,-37.011002)">
</g>
<g
   id="g28"
   transform="translate(0,-37.011002)">
</g>
<g
   id="g30"
   transform="translate(0,-37.011002)">
</g>
<g
   id="g32"
   transform="translate(0,-37.011002)">
</g>
<g
   id="g833"
   transform="matrix(0.302135,0,0,0.302135,-0.00822677,-0.01678062)"><path
     inkscape:export-ydpi="90.639999"
     inkscape:export-xdpi="90.639999"
     inkscape:export-filename="C:\Users\cuencapauta\Documents\Erick\p2kk\Dropbox\Workspaces\htdocs\globmig\evoflows\img\pin.png"
     style="fill:#000000;fill-opacity:1;stroke:none"
     id="path2"
     d="M 52.963,21.297 C 52.895,20.968 52.666,20.694 52.354,20.57 43.78,17.154 36.181,19.905 33.993,20.858 L 19.114,8.2 C 19.634,3.632 17.17,0.508 17.06,0.372 16.881,0.151 16.618,0.016 16.335,0 16.053,-0.006 15.774,0.091 15.574,0.292 L 0.32,15.546 c -0.202,0.201 -0.308,0.479 -0.291,0.765 0.016,0.284 0.153,0.549 0.376,0.726 2.775,2.202 6.349,2.167 7.726,2.055 l 12.721,14.953 c -0.868,2.23 -3.52,10.27 -0.307,18.337 0.124,0.313 0.397,0.541 0.727,0.609 0.067,0.014 0.135,0.021 0.202,0.021 0.263,0 0.518,-0.104 0.707,-0.293 l 14.57,-14.57 13.57,13.57 c 0.195,0.195 0.451,0.293 0.707,0.293 0.256,0 0.512,-0.098 0.707,-0.293 0.391,-0.391 0.391,-1.023 0,-1.414 L 38.165,36.735 52.692,22.207 c 0.237,-0.238 0.339,-0.58 0.271,-0.91 z M 35.314,36.755 21.89,50.18 c -2.437,-8.005 0.993,-15.827 1.03,-15.909 0.158,-0.353 0.1,-0.765 -0.15,-1.059 L 9.31,17.39 C 9.119,17.165 8.837,17.038 8.546,17.038 c -0.051,0 -0.103,0.004 -0.154,0.013 -0.036,0.006 -3.173,0.472 -5.794,-0.955 l 13.5,-13.5 c 0.604,1.156 1.391,3.26 0.964,5.848 -0.058,0.346 0.071,0.697 0.338,0.924 l 15.785,13.43 c 0.309,0.262 0.748,0.309 1.105,0.128 0.077,-0.04 7.378,-3.695 15.869,-1.017 z"
     inkscape:connector-curvature="0" /><path
     inkscape:export-ydpi="90.639999"
     inkscape:export-xdpi="90.639999"
     inkscape:export-filename="C:\Users\cuencapauta\Documents\Erick\p2kk\Dropbox\Workspaces\htdocs\globmig\evoflows\img\pin.png"
     inkscape:connector-curvature="0"
     id="path4599"
     d="m 21.888968,50.116131 c -0.02724,-0.04413 -0.242655,-0.858624 -0.340614,-1.28787 -0.70381,-3.084013 -0.68995,-6.476908 0.04109,-10.05808 0.296255,-1.451277 0.802179,-3.173848 1.251652,-4.261629 0.156462,-0.378656 0.162466,-0.402474 0.163506,-0.648621 0.001,-0.238668 -0.0054,-0.267897 -0.09719,-0.44285 -0.07364,-0.14037 -1.168811,-1.445086 -4.369547,-5.205612 C 16.188664,25.451406 13.825689,22.675137 13.286809,22.041981 12.747929,21.408826 11.657976,20.126369 10.86469,19.192078 10.071401,18.257788 9.359066,17.427935 9.2817199,17.347961 9.1957955,17.259118 9.074414,17.172028 8.969687,17.124081 8.7669721,17.031274 8.5698515,17.02294 7.9085693,17.079219 6.1922876,17.225287 4.3517487,16.919257 2.9450029,16.253918 L 2.6230609,16.101651 9.3607942,9.3628243 16.098527,2.6239979 16.25661,2.9549841 c 0.425841,0.8916022 0.729007,1.9486522 0.85621,2.9853402 0.06638,0.5410261 0.06314,1.5447229 -0.0067,2.0627266 -0.09437,0.7002781 -0.06388,0.9535873 0.147665,1.2265069 0.04408,0.056866 3.662172,3.1510432 8.040213,6.8759502 5.791,4.927074 8.002154,6.792537 8.114502,6.845878 0.134858,0.06403 0.190014,0.07325 0.435206,0.07279 0.272648,-5.14e-4 0.288099,-0.004 0.53348,-0.121538 0.640372,-0.306647 1.652682,-0.684367 2.56199,-0.955947 3.987578,-1.190958 8.166746,-1.32321 11.954264,-0.378299 0.494695,0.123416 1.172795,0.317381 1.199632,0.343144 0.0112,0.01075 -6.326765,6.366665 -14.084366,14.124254 -7.7576,7.757587 -14.111495,14.093741 -14.119767,14.08034 z"
     style="opacity:1;fill:#000000;fill-opacity:1;stroke:#000000;stroke-width:0.40000001;stroke-linecap:round;stroke-linejoin:round;stroke-miterlimit:4;stroke-dasharray:none;stroke-dashoffset:0;stroke-opacity:1;paint-order:normal" /></g></svg>