<?xml version="1.0" encoding="UTF-8" standalone="no"?>
<!-- Generator: Adobe Illustrator 19.0.0, SVG Export Plug-In . SVG Version: 6.00 Build 0)  -->

<svg
   xmlns:dc="http://purl.org/dc/elements/1.1/"
   xmlns:cc="http://creativecommons.org/ns#"
   xmlns:rdf="http://www.w3.org/1999/02/22-rdf-syntax-ns#"
   xmlns:svg="http://www.w3.org/2000/svg"
   xmlns="http://www.w3.org/2000/svg"
   xmlns:sodipodi="http://sodipodi.sourceforge.net/DTD/sodipodi-0.dtd"
   xmlns:inkscape="http://www.inkscape.org/namespaces/inkscape"
   version="1.1"
   id="Capa_1"
   x="0px"
   y="0px"
   viewBox="0 0 39.999999 40.000002"
   xml:space="preserve"
   sodipodi:docname="icon_play.svg"
   width="40"
   height="40"
   inkscape:version="0.92.3 (2405546, 2018-03-11)"><metadata
   id="metadata43"><rdf:RDF><cc:Work
       rdf:about=""><dc:format>image/svg+xml</dc:format><dc:type
         rdf:resource="http://purl.org/dc/dcmitype/StillImage" /><dc:title></dc:title></cc:Work></rdf:RDF></metadata><defs
   id="defs41">
	
	
</defs><sodipodi:namedview
   pagecolor="#ffffff"
   bordercolor="#666666"
   borderopacity="1"
   objecttolerance="10"
   gridtolerance="10"
   guidetolerance="10"
   inkscape:pageopacity="0"
   inkscape:pageshadow="2"
   inkscape:window-width="3840"
   inkscape:window-height="2066"
   id="namedview39"
   showgrid="false"
   units="px"
   inkscape:zoom="11.125147"
   inkscape:cx="-21.550183"
   inkscape:cy="51.682031"
   inkscape:window-x="-11"
   inkscape:window-y="-11"
   inkscape:window-maximized="1"
   inkscape:current-layer="Capa_1"
   borderlayer="false" />

<g
   id="g8"
   transform="translate(0,-19.999922)">
</g>
<g
   id="g10"
   transform="translate(0,-19.999922)">
</g>
<g
   id="g12"
   transform="translate(0,-19.999922)">
</g>
<g
   id="g14"
   transform="translate(0,-19.999922)">
</g>
<g
   id="g16"
   transform="translate(0,-19.999922)">
</g>
<g
   id="g18"
   transform="translate(0,-19.999922)">
</g>
<g
   id="g20"
   transform="translate(0,-19.999922)">
</g>
<g
   id="g22"
   transform="translate(0,-19.999922)">
</g>
<g
   id="g24"
   transform="translate(0,-19.999922)">
</g>
<g
   id="g26"
   transform="translate(0,-19.999922)">
</g>
<g
   id="g28"
   transform="translate(0,-19.999922)">
</g>
<g
   id="g30"
   transform="translate(0,-19.999922)">
</g>
<g
   id="g32"
   transform="translate(0,-19.999922)">
</g>
<g
   id="g34"
   transform="translate(0,-19.999922)">
</g>
<g
   id="g36"
   transform="translate(0,-19.999922)">
</g>
<g
   id="g4594"
   transform="matrix(0.69969476,0,0,0.69969476,45.031445,-1.101183)"
   inkscape:export-filename="C:\Users\cuencapauta\Documents\Erick\p2kk\Dropbox\Workspaces\htdocs\globmig\evoflows\img\play.png"
   inkscape:export-xdpi="83.959999"
   inkscape:export-ydpi="83.959999"><g
     id="g4559"><circle
       style="opacity:1;fill:#d32322;fill-opacity:1;stroke:none;stroke-width:5;stroke-linecap:round;stroke-linejoin:round;stroke-miterlimit:4;stroke-dasharray:none;stroke-dashoffset:0;stroke-opacity:1;paint-order:normal"
       id="path4555"
       cx="-35.774807"
       cy="30.157698"
       r="28.583893" /><path
       inkscape:connector-curvature="0"
       id="path2"
       d="m -21.851841,29.353773 -22,-15 c -0.307,-0.208 -0.703,-0.231 -1.031,-0.058 -0.327,0.173 -0.532,0.513 -0.532,0.884 v 30 c 0,0.371 0.205,0.711 0.533,0.884 0.146,0.078 0.307,0.116 0.467,0.116 0.197,0 0.394,-0.059 0.563,-0.174 l 22,-15 c 0.273,-0.186 0.437,-0.495 0.437,-0.826 0,-0.331 -0.164,-0.64 -0.437,-0.826 z"
       style="fill:#ffffff;fill-opacity:1;stroke:none;stroke-opacity:1"
       sodipodi:nodetypes="cccsscsccsc" /></g></g></svg>